# xmcd CD database file
#
# Track frame offsets:
#	150
#	21175
#	42152
#
# Disc length: 951 seconds
#
# Revision: 0
# Processed by: cddbd v1.5PL3 Copyright (c) Steve Scherf et al.
# Submitted via: CDex 1.51
#
DISCID=1b03b503
DTITLE=「だぁ！ だぁ！ だぁ！」 SEBプレゼンツ  BOY MEETS GIRL with TRF - TRF
DYEAR=2000
DGENRE=Euro-House
TTITLE0=BOY MEETS GIRL (DA! DA! DA! REMIX)
TTITLE1=BOY MEETS GIRL (DA! DA! DA! REMIX INST)
TTITLE2=BOY MEETS GIRL (DELTA REMIX)
EXTD=YEAR: 2000
EXTT0=
EXTT1=
EXTT2=
PLAYORDER=
